<svg width="149" height="141" viewBox="0 0 149 141" fill="none" xmlns="http://www.w3.org/2000/svg">
<path d="M71.7433 45.0811C79.2433 45.2811 85.5433 46.9811 90.9433 50.9811C98.9433 56.7811 102.943 64.6811 102.443 74.6811C102.243 78.4811 100.643 81.7811 98.1433 84.5811C93.8433 89.4811 88.2433 91.8811 81.7433 92.6811C81.1433 92.7811 80.6433 92.7811 80.0433 92.6811C73.5433 91.5811 67.1433 90.3811 61.3433 87.0811C53.8433 82.5811 49.9433 75.8811 50.0433 67.0811C50.2433 56.9811 58.1433 47.4811 67.7433 45.4811C69.3433 45.1811 70.9433 45.1811 71.7433 45.0811ZM72.4433 55.9811C71.0433 56.2811 69.5433 56.3811 68.2433 56.8811C62.1433 59.3811 59.3433 67.4811 62.6433 73.1811C63.7433 75.1811 65.4433 76.6811 67.4433 77.6811C71.2433 79.5811 75.3433 80.7811 79.5433 81.1811C81.5433 81.3811 83.7433 80.9811 85.6433 80.1811C90.2433 78.3811 92.1433 74.8811 91.1433 70.2811C90.2433 66.0811 88.1433 62.4811 84.5433 59.9811C81.0433 57.5811 76.9433 56.3811 72.4433 55.9811Z" fill="#6248FF"/>
<path d="M81.9476 21.0811C86.0476 21.4811 90.2476 21.5811 94.3476 22.1811C103.848 23.6811 111.548 28.5811 117.348 36.1811C124.948 45.9811 129.048 57.1811 129.448 69.6811C129.648 74.4811 128.648 79.0811 126.748 83.4811C124.948 87.5811 122.748 91.4811 119.848 94.9811C110.148 106.581 98.3476 114.781 83.0476 116.881C72.7476 118.281 62.5476 117.681 52.8476 114.081C46.1476 111.481 40.0476 107.781 34.6476 103.081C32.8476 101.481 31.3476 99.3811 30.0476 97.2811C26.5476 91.3811 24.4476 84.8811 22.5476 78.3811C21.9476 76.3811 22.0476 74.0811 22.0476 71.9811C22.0476 58.5811 26.8476 47.1811 36.8476 38.0811C48.2476 27.7811 61.5476 21.8811 77.1476 21.3811C78.7476 21.3811 80.3476 21.3811 81.9476 21.3811C81.9476 21.2811 81.9476 21.1811 81.9476 21.0811ZM81.7476 32.2811C68.6476 31.8811 57.0476 35.9811 46.8476 44.0811C42.6476 47.4811 39.0476 51.3811 36.6476 56.3811C31.1476 67.8811 32.2476 78.9811 38.6476 89.7811C39.6476 91.4811 41.1476 92.8811 42.7476 94.0811C45.3476 96.0811 48.0476 97.8811 50.8476 99.5811C58.3476 104.181 66.3476 106.781 75.3476 106.381C92.7476 105.581 105.448 97.2811 114.548 82.9811C115.648 81.2811 116.448 79.4811 117.048 77.5811C117.748 75.4811 118.248 73.1811 118.348 71.0811C118.348 60.1811 114.748 50.4811 107.948 42.1811C103.548 36.8811 97.8476 33.6811 90.8476 32.9811C87.8476 32.5811 84.7476 32.4811 81.7476 32.2811Z" fill="#EE8DB9"/>
<path d="M67.0414 140.181C58.7414 140.181 51.8414 139.081 45.2414 136.381C40.9414 134.581 37.0414 132.081 33.6414 128.781C29.0414 124.281 24.2414 119.781 19.5414 115.381C19.1414 114.981 18.6414 114.681 18.2414 114.281C16.6414 112.781 14.7414 111.381 13.4414 109.581C6.74136 100.481 1.64136 90.581 0.341363 79.081C-0.758637 69.381 0.841363 60.081 4.54136 51.181C7.44136 44.081 11.1414 37.481 16.0414 31.681C21.0414 25.781 26.7414 20.981 33.5414 17.281C41.6414 13.081 49.8414 9.08102 58.4414 5.88102C70.7414 1.38102 83.5414 -0.418985 96.6414 0.0810152C101.441 0.281015 106.041 1.38102 110.241 3.68102C115.241 6.38102 120.241 9.18102 124.841 12.381C134.541 18.981 140.441 28.581 144.241 39.381C149.641 54.781 150.241 70.581 145.941 86.381C145.041 89.681 143.841 92.981 142.341 95.981C135.341 109.781 125.441 120.881 111.441 128.081C97.0414 135.481 81.9414 139.481 67.0414 140.181ZM66.8414 129.081C80.5414 128.281 94.2414 124.581 107.141 117.881C117.641 112.381 125.141 103.981 130.941 93.881C132.641 90.881 134.141 87.581 135.041 84.181C138.941 69.981 138.441 55.781 133.241 41.981C130.141 33.781 125.641 26.481 118.141 21.381C114.141 18.681 109.841 16.281 105.541 13.881C102.241 12.081 98.6414 11.281 94.9414 11.181C83.4414 10.981 72.1414 12.581 61.3414 16.681C53.7414 19.581 46.3414 23.181 39.1414 26.981C33.5414 29.981 28.8414 33.881 24.7414 38.681C20.6414 43.481 17.6414 48.881 15.1414 54.681C11.3414 63.481 10.0414 72.481 12.0414 81.881C12.9414 86.081 14.1414 89.981 17.5414 93.081C19.1414 94.581 20.3414 96.581 21.5414 98.381C22.6414 99.981 23.6414 101.581 24.5414 103.281C26.0414 105.881 27.9414 108.081 30.1414 110.081C33.6414 113.281 37.2414 116.581 40.5414 119.981C44.0414 123.481 48.1414 125.781 52.7414 127.181C57.1414 128.581 61.5414 129.081 66.8414 129.081Z" fill="#F7D046"/>
</svg>
