<svg width="223" height="82" viewBox="0 0 223 82" fill="none" xmlns="http://www.w3.org/2000/svg">
<g clip-path="url(#clip0_86_2633)">
<path d="M112.702 80.9462C112.936 81.351 113.675 80.8469 113.973 80.5977C114.007 80.6556 114.062 80.6237 114.062 80.6237C114.57 80.4843 115.188 79.8964 115.319 79.3581C116.245 74.9683 118.335 71.0634 121.39 68.0658C121.599 67.7908 122.205 67.0553 121.828 66.6564C121.395 66.2895 120.744 66.8196 120.446 67.0687C118.251 69.2611 116.434 71.8523 115.127 74.6889C114.251 70.8767 113.409 67.1223 112.821 63.2983C112.395 59.4436 111.716 58.5255 112.122 43.8113C112.182 41.6489 112.548 39.4214 112.5 37.0208C112.462 35.1345 111.745 35.5118 111.368 35.5118C110.162 38.9066 110.412 49.5953 110.236 53.2437C109.875 61.1624 111.625 69.7714 113.443 77.5114C110.84 73.3857 108.072 69.3556 105.082 65.4531C104.726 64.9645 103.943 65.6481 103.7 65.8653C103.381 66.2042 102.94 66.844 103.262 67.2747C106.608 71.6658 109.765 76.2423 112.702 80.9462Z" fill="black"/>
<path d="M15.4681 17H8.89V5.57812H15.4681V7.5625H11.3119V10.0703H15.1791V12.0547H11.3119V15H15.4681V17ZM27.4131 17H24.6475L21.9912 12.6797L19.335 17H16.7412L20.5303 11.1094L16.9834 5.57812H19.6553L22.1162 9.6875L24.5303 5.57812H27.1397L23.5537 11.2422L27.4131 17ZM31.5925 10.9531H32.3894C33.1342 10.9531 33.6915 10.8073 34.0612 10.5156C34.431 10.2188 34.6159 9.78906 34.6159 9.22656C34.6159 8.65885 34.4597 8.23958 34.1472 7.96875C33.8399 7.69792 33.3555 7.5625 32.6941 7.5625H31.5925V10.9531ZM37.0612 9.14062C37.0612 10.3698 36.6758 11.3099 35.905 11.9609C35.1394 12.612 34.0482 12.9375 32.6316 12.9375H31.5925V17H29.1706V5.57812H32.8191C34.2045 5.57812 35.2566 5.8776 35.9753 6.47656C36.6993 7.07031 37.0612 7.95833 37.0612 9.14062ZM39.5375 17V5.57812H41.9594V15H46.5922V17H39.5375ZM55.8966 17L55.0684 14.2812H50.9044L50.0762 17H47.4669L51.4981 5.53125H54.4591L58.5059 17H55.8966ZM54.4903 12.25C53.7247 9.78646 53.2924 8.39323 53.1934 8.07031C53.0997 7.7474 53.032 7.49219 52.9903 7.30469C52.8184 7.97135 52.3262 9.61979 51.5137 12.25H54.4903ZM60.2712 17V5.57812H62.6931V17H60.2712ZM76.0209 17H72.9428L67.9741 8.35938H67.9037C68.0027 9.88542 68.0522 10.974 68.0522 11.625V17H65.8881V5.57812H68.9428L73.9037 14.1328H73.9584C73.8803 12.6484 73.8412 11.599 73.8412 10.9844V5.57812H76.0209V17ZM85.8019 17H79.2237V5.57812H85.8019V7.5625H81.6456V10.0703H85.5128V12.0547H81.6456V15H85.8019V17ZM97.9891 11.1797C97.9891 13.0599 97.4526 14.5 96.3797 15.5C95.312 16.5 93.7677 17 91.7469 17H88.5125V5.57812H92.0984C93.963 5.57812 95.4109 6.07031 96.4422 7.05469C97.4734 8.03906 97.9891 9.41406 97.9891 11.1797ZM95.4734 11.2422C95.4734 8.78906 94.3901 7.5625 92.2234 7.5625H90.9344V15H91.9734C94.3068 15 95.4734 13.7474 95.4734 11.2422ZM105.152 17V5.57812H107.574V17H105.152ZM120.902 17H117.824L112.855 8.35938H112.785C112.884 9.88542 112.933 10.974 112.933 11.625V17H110.769V5.57812H113.824L118.785 14.1328H118.84C118.762 12.6484 118.722 11.599 118.722 10.9844V5.57812H120.902V17ZM136.027 14.6328H134.652V17H132.292V14.6328H127.417V12.9531L132.425 5.57812H134.652V12.7578H136.027V14.6328ZM132.292 12.7578V10.8203C132.292 10.4974 132.305 10.0286 132.331 9.41406C132.357 8.79948 132.378 8.44271 132.394 8.34375H132.331C132.139 8.77083 131.907 9.1875 131.636 9.59375L129.542 12.7578H132.292ZM147.354 17L144.604 8.03906H144.534C144.633 9.86198 144.682 11.0781 144.682 11.6875V17H142.518V5.57812H145.815L148.518 14.3125H148.565L151.432 5.57812H154.729V17H152.471V11.5938C152.471 11.3385 152.474 11.0443 152.479 10.7109C152.489 10.3776 152.526 9.49219 152.588 8.05469H152.518L149.573 17H147.354ZM157.932 17V5.57812H160.354V17H157.932ZM173.682 17H170.603L165.635 8.35938H165.564C165.663 9.88542 165.713 10.974 165.713 11.625V17H163.549V5.57812H166.603L171.564 14.1328H171.619C171.541 12.6484 171.502 11.599 171.502 10.9844V5.57812H173.682V17ZM186.181 5.57812V12.9688C186.181 13.8125 185.991 14.5521 185.611 15.1875C185.236 15.8229 184.692 16.3099 183.978 16.6484C183.265 16.987 182.421 17.1562 181.447 17.1562C179.978 17.1562 178.837 16.7812 178.025 16.0312C177.212 15.276 176.806 14.2448 176.806 12.9375V5.57812H179.22V12.5703C179.22 13.4505 179.397 14.0964 179.752 14.5078C180.106 14.9193 180.692 15.125 181.509 15.125C182.301 15.125 182.874 14.9193 183.228 14.5078C183.587 14.0911 183.767 13.4401 183.767 12.5547V5.57812H186.181ZM193.704 17H191.283V7.59375H188.181V5.57812H196.806V7.59375H193.704V17ZM205.462 17H198.884V5.57812H205.462V7.5625H201.306V10.0703H205.173V12.0547H201.306V15H205.462V17ZM214.915 13.8281C214.915 14.8594 214.542 15.6719 213.798 16.2656C213.058 16.8594 212.027 17.1562 210.704 17.1562C209.485 17.1562 208.407 16.9271 207.469 16.4688V14.2188C208.24 14.5625 208.891 14.8047 209.423 14.9453C209.959 15.0859 210.449 15.1562 210.891 15.1562C211.423 15.1562 211.829 15.0547 212.11 14.8516C212.396 14.6484 212.54 14.3464 212.54 13.9453C212.54 13.7214 212.477 13.5234 212.352 13.3516C212.227 13.1745 212.042 13.0052 211.798 12.8438C211.558 12.6823 211.066 12.4245 210.321 12.0703C209.623 11.7422 209.1 11.4271 208.751 11.125C208.402 10.8229 208.123 10.4714 207.915 10.0703C207.706 9.66927 207.602 9.20052 207.602 8.66406C207.602 7.65365 207.943 6.85938 208.626 6.28125C209.313 5.70312 210.261 5.41406 211.469 5.41406C212.063 5.41406 212.628 5.48438 213.165 5.625C213.706 5.76562 214.271 5.96354 214.86 6.21875L214.079 8.10156C213.469 7.85156 212.964 7.67708 212.563 7.57812C212.167 7.47917 211.777 7.42969 211.391 7.42969C210.933 7.42969 210.581 7.53646 210.337 7.75C210.092 7.96354 209.969 8.24219 209.969 8.58594C209.969 8.79948 210.019 8.98698 210.118 9.14844C210.217 9.30469 210.373 9.45833 210.587 9.60938C210.805 9.75521 211.318 10.0208 212.126 10.4062C213.193 10.9167 213.925 11.4297 214.321 11.9453C214.717 12.4557 214.915 13.0833 214.915 13.8281Z" fill="black"/>
</g>
<defs>
<clipPath id="clip0_86_2633">
<rect width="223" height="82" fill="white"/>
</clipPath>
</defs>
</svg>
