<svg width="81" height="19" viewBox="0 0 81 19" fill="none" xmlns="http://www.w3.org/2000/svg">
<path d="M6.088 18.288C4.952 18.288 3.904 18.08 2.944 17.664C2 17.232 1.224 16.624 0.616 15.84L2.776 13.248C3.24 13.856 3.728 14.32 4.24 14.64C4.752 14.944 5.304 15.096 5.896 15.096C7.48 15.096 8.272 14.168 8.272 12.312V4.32H2.368V1.2H12.136V12.096C12.136 14.176 11.624 15.728 10.6 16.752C9.576 17.776 8.072 18.288 6.088 18.288ZM21.4964 18.288C20.1524 18.288 18.8644 18.112 17.6324 17.76C16.4004 17.392 15.4084 16.92 14.6564 16.344L15.9764 13.416C16.6964 13.928 17.5444 14.352 18.5204 14.688C19.5124 15.008 20.5124 15.168 21.5204 15.168C22.2884 15.168 22.9044 15.096 23.3684 14.952C23.8484 14.792 24.2004 14.576 24.4244 14.304C24.6484 14.032 24.7604 13.72 24.7604 13.368C24.7604 12.92 24.5844 12.568 24.2324 12.312C23.8804 12.04 23.4164 11.824 22.8404 11.664C22.2644 11.488 21.6244 11.328 20.9204 11.184C20.2324 11.024 19.5364 10.832 18.8324 10.608C18.1444 10.384 17.5124 10.096 16.9364 9.744C16.3604 9.392 15.8884 8.928 15.5204 8.352C15.1684 7.776 14.9924 7.04 14.9924 6.144C14.9924 5.184 15.2484 4.312 15.7604 3.528C16.2884 2.728 17.0724 2.096 18.1124 1.632C19.1684 1.152 20.4884 0.912 22.0724 0.912C23.1284 0.912 24.1684 1.04 25.1924 1.296C26.2164 1.536 27.1204 1.904 27.9044 2.4L26.7044 5.352C25.9204 4.904 25.1364 4.576 24.3524 4.368C23.5684 4.144 22.8004 4.032 22.0484 4.032C21.2964 4.032 20.6804 4.12 20.2004 4.296C19.7204 4.472 19.3764 4.704 19.1684 4.992C18.9604 5.264 18.8564 5.584 18.8564 5.952C18.8564 6.384 19.0324 6.736 19.3844 7.008C19.7364 7.264 20.2004 7.472 20.7764 7.632C21.3524 7.792 21.9844 7.952 22.6724 8.112C23.3764 8.272 24.0724 8.456 24.7604 8.664C25.4644 8.872 26.1044 9.152 26.6804 9.504C27.2564 9.856 27.7204 10.32 28.0724 10.896C28.4404 11.472 28.6244 12.2 28.6244 13.08C28.6244 14.024 28.3604 14.888 27.8324 15.672C27.3044 16.456 26.5124 17.088 25.4564 17.568C24.4164 18.048 23.0964 18.288 21.4964 18.288ZM31.2811 18V1.2H34.4971L44.4091 13.296H42.8491V1.2H46.6891V18H43.4971L33.5611 5.904H35.1211V18H31.2811ZM54.2639 8.76H62.3279V11.88H54.2639V8.76ZM54.5519 18H50.6639V1.2H63.3599V4.32H54.5519V18ZM63.7673 18L70.9913 8.04V10.872L64.0793 1.2H68.4953L73.2713 7.944L71.4233 7.968L76.1273 1.2H80.3513L73.4873 10.704V7.92L80.7593 18H76.2713L71.3273 10.872H73.1033L68.2313 18H63.7673Z" fill="black"/>
</svg>
