<svg width="259" height="100" viewBox="0 0 259 100" fill="none" xmlns="http://www.w3.org/2000/svg">
<path d="M228.357 64.1478C228.748 64.6154 229.539 65.7763 228.904 66.1431C221.522 70.7519 214.34 75.7074 207.448 80.9571C206.772 81.4629 205.768 80.7716 205.237 80.2698C204.896 79.8888 203.823 78.6594 204.59 78.1012C210.714 73.4097 217.039 69.0649 223.514 64.98C211.367 67.8333 198.988 70.7047 186.561 70.1379C180.835 69.8616 175.081 68.9081 169.754 67.0155C163.813 64.8991 158.61 61.5474 154.206 57.2727C148.93 52.1152 144.864 45.9118 141.806 39.3578C141.506 38.8378 141.419 37.8482 142.304 37.9148C143.19 37.9813 144.153 38.8117 144.513 39.644C147.102 44.9667 150.244 50.2007 154.326 54.5459C158.117 58.5969 162.565 61.6906 167.852 63.7223C178.376 67.699 190.081 67.643 201.208 65.9566C207.209 65.0338 213.101 63.7119 219.084 62.3377C214.632 60.2859 210.566 57.434 207.125 53.9897C206.734 53.5221 205.902 52.5003 206.478 51.8211C207.104 51.2286 208.258 52.1799 208.69 52.5084C213.394 57.3031 219.523 60.5823 226.412 62.0357C227.256 62.2413 228.179 63.2107 228.398 64.0088C228.398 64.0088 228.448 64.0954 228.357 64.1478Z" fill="black"/>
<path d="M33.4681 17H26.89V5.57812H33.4681V7.5625H29.3119V10.0703H33.1791V12.0547H29.3119V15H33.4681V17ZM45.4131 17H42.6475L39.9912 12.6797L37.335 17H34.7412L38.5303 11.1094L34.9834 5.57812H37.6553L40.1162 9.6875L42.5303 5.57812H45.1397L41.5537 11.2422L45.4131 17ZM49.5925 10.9531H50.3894C51.1342 10.9531 51.6915 10.8073 52.0612 10.5156C52.431 10.2188 52.6159 9.78906 52.6159 9.22656C52.6159 8.65885 52.4597 8.23958 52.1472 7.96875C51.8399 7.69792 51.3555 7.5625 50.6941 7.5625H49.5925V10.9531ZM55.0612 9.14062C55.0612 10.3698 54.6758 11.3099 53.905 11.9609C53.1394 12.612 52.0482 12.9375 50.6316 12.9375H49.5925V17H47.1706V5.57812H50.8191C52.2045 5.57812 53.2566 5.8776 53.9753 6.47656C54.6993 7.07031 55.0612 7.95833 55.0612 9.14062ZM57.5375 17V5.57812H59.9594V15H64.5922V17H57.5375ZM73.8966 17L73.0684 14.2812H68.9044L68.0762 17H65.4669L69.4981 5.53125H72.4591L76.5059 17H73.8966ZM72.4903 12.25C71.7247 9.78646 71.2924 8.39323 71.1934 8.07031C71.0997 7.7474 71.032 7.49219 70.9903 7.30469C70.8184 7.97135 70.3262 9.61979 69.5137 12.25H72.4903ZM78.2712 17V5.57812H80.6931V17H78.2712ZM94.0209 17H90.9428L85.9741 8.35938H85.9037C86.0027 9.88542 86.0522 10.974 86.0522 11.625V17H83.8881V5.57812H86.9428L91.9037 14.1328H91.9584C91.8803 12.6484 91.8412 11.599 91.8412 10.9844V5.57812H94.0209V17ZM103.802 17H97.2237V5.57812H103.802V7.5625H99.6456V10.0703H103.513V12.0547H99.6456V15H103.802V17ZM115.989 11.1797C115.989 13.0599 115.453 14.5 114.38 15.5C113.312 16.5 111.768 17 109.747 17H106.512V5.57812H110.098C111.963 5.57812 113.411 6.07031 114.442 7.05469C115.473 8.03906 115.989 9.41406 115.989 11.1797ZM113.473 11.2422C113.473 8.78906 112.39 7.5625 110.223 7.5625H108.934V15H109.973C112.307 15 113.473 13.7474 113.473 11.2422ZM123.152 17V5.57812H125.574V17H123.152ZM138.902 17H135.824L130.855 8.35938H130.785C130.884 9.88542 130.933 10.974 130.933 11.625V17H128.769V5.57812H131.824L136.785 14.1328H136.84C136.762 12.6484 136.722 11.599 136.722 10.9844V5.57812H138.902V17ZM154.027 14.6328H152.652V17H150.292V14.6328H145.417V12.9531L150.425 5.57812H152.652V12.7578H154.027V14.6328ZM150.292 12.7578V10.8203C150.292 10.4974 150.305 10.0286 150.331 9.41406C150.357 8.79948 150.378 8.44271 150.394 8.34375H150.331C150.139 8.77083 149.907 9.1875 149.636 9.59375L147.542 12.7578H150.292ZM165.354 17L162.604 8.03906H162.534C162.633 9.86198 162.682 11.0781 162.682 11.6875V17H160.518V5.57812H163.815L166.518 14.3125H166.565L169.432 5.57812H172.729V17H170.471V11.5938C170.471 11.3385 170.474 11.0443 170.479 10.7109C170.489 10.3776 170.526 9.49219 170.588 8.05469H170.518L167.573 17H165.354ZM175.932 17V5.57812H178.354V17H175.932ZM191.682 17H188.603L183.635 8.35938H183.564C183.663 9.88542 183.713 10.974 183.713 11.625V17H181.549V5.57812H184.603L189.564 14.1328H189.619C189.541 12.6484 189.502 11.599 189.502 10.9844V5.57812H191.682V17ZM204.181 5.57812V12.9688C204.181 13.8125 203.991 14.5521 203.611 15.1875C203.236 15.8229 202.692 16.3099 201.978 16.6484C201.265 16.987 200.421 17.1562 199.447 17.1562C197.978 17.1562 196.837 16.7812 196.025 16.0312C195.212 15.276 194.806 14.2448 194.806 12.9375V5.57812H197.22V12.5703C197.22 13.4505 197.397 14.0964 197.752 14.5078C198.106 14.9193 198.692 15.125 199.509 15.125C200.301 15.125 200.874 14.9193 201.228 14.5078C201.587 14.0911 201.767 13.4401 201.767 12.5547V5.57812H204.181ZM211.704 17H209.283V7.59375H206.181V5.57812H214.806V7.59375H211.704V17ZM223.462 17H216.884V5.57812H223.462V7.5625H219.306V10.0703H223.173V12.0547H219.306V15H223.462V17ZM232.915 13.8281C232.915 14.8594 232.542 15.6719 231.798 16.2656C231.058 16.8594 230.027 17.1562 228.704 17.1562C227.485 17.1562 226.407 16.9271 225.469 16.4688V14.2188C226.24 14.5625 226.891 14.8047 227.423 14.9453C227.959 15.0859 228.449 15.1562 228.891 15.1562C229.423 15.1562 229.829 15.0547 230.11 14.8516C230.396 14.6484 230.54 14.3464 230.54 13.9453C230.54 13.7214 230.477 13.5234 230.352 13.3516C230.227 13.1745 230.042 13.0052 229.798 12.8438C229.558 12.6823 229.066 12.4245 228.321 12.0703C227.623 11.7422 227.1 11.4271 226.751 11.125C226.402 10.8229 226.123 10.4714 225.915 10.0703C225.706 9.66927 225.602 9.20052 225.602 8.66406C225.602 7.65365 225.943 6.85938 226.626 6.28125C227.313 5.70312 228.261 5.41406 229.469 5.41406C230.063 5.41406 230.628 5.48438 231.165 5.625C231.706 5.76562 232.271 5.96354 232.86 6.21875L232.079 8.10156C231.469 7.85156 230.964 7.67708 230.563 7.57812C230.167 7.47917 229.777 7.42969 229.391 7.42969C228.933 7.42969 228.581 7.53646 228.337 7.75C228.092 7.96354 227.969 8.24219 227.969 8.58594C227.969 8.79948 228.019 8.98698 228.118 9.14844C228.217 9.30469 228.373 9.45833 228.587 9.60938C228.805 9.75521 229.318 10.0208 230.126 10.4062C231.193 10.9167 231.925 11.4297 232.321 11.9453C232.717 12.4557 232.915 13.0833 232.915 13.8281Z" fill="black"/>
</svg>
